<svg width="24" height="24" viewBox="0 0 24 24" fill="none" xmlns="http://www.w3.org/2000/svg">
<path d="M19.4537 8.81728C19.7456 8.81728 19.985 8.5768 19.985 8.2837V4.53358C19.985 4.24049 19.7456 4 19.4537 4H15.7119C15.42 4 15.1805 4.24049 15.1805 4.53358V5.79615H8.79701V4.53358C8.79701 4.24049 8.55753 4 8.26567 4H4.53134C4.23948 4 4 4.24049 4 4.53358V8.29122C4 8.58431 4.23948 8.8248 4.53134 8.8248H5.82601V15.1752H4.53134C4.23948 15.1752 4 15.4157 4 15.7088V19.4664C4 19.7595 4.23948 20 4.53134 20H8.27315C8.56501 20 8.80449 19.7595 8.80449 19.4664V18.2039H15.1955V19.4664C15.1955 19.7595 15.435 20 15.7268 20H19.4687C19.7605 20 20 19.7595 20 19.4664V15.7088C20 15.4157 19.7605 15.1752 19.4687 15.1752H18.174V8.81728H19.4687H19.4537ZM18.9224 18.9253H16.2432V16.2349H18.9224V18.9253ZM15.7194 15.1677C15.4275 15.1677 15.188 15.4082 15.188 15.7013V17.1292H8.79701V15.7013C8.79701 15.4082 8.55753 15.1677 8.26567 15.1677H6.8812V8.81728H8.26567C8.55753 8.81728 8.79701 8.5768 8.79701 8.2837V6.8558H15.188V8.2837C15.188 8.5768 15.4275 8.81728 15.7194 8.81728H17.1038V15.1677H15.7194ZM7.74181 16.2349V18.9253H5.06268V16.2349H7.74181ZM5.06268 5.06717H7.74181V7.75763H5.06268V5.06717ZM16.2507 7.75763V5.06717H18.9298V7.75763H16.2507Z" fill="#5E5E5E"/>
</svg>
