<svg width="24" height="24" viewBox="0 0 24 24" fill="none" xmlns="http://www.w3.org/2000/svg">
<path d="M15.5869 18.8684C15.6922 18.9541 15.8209 18.9908 15.9496 18.9908C16.0784 18.9908 16.2071 18.9419 16.3124 18.8684C16.5348 18.697 16.6167 18.4033 16.5348 18.134L15.1656 13.7397L18.7466 11.0223C18.9689 10.8509 19.0508 10.5572 18.9689 10.2879C18.887 10.0186 18.6529 9.83497 18.3721 9.83497H13.9485L12.6027 5.4529C12.5208 5.18361 12.275 5 12.0059 5C11.7367 5 11.4909 5.18361 11.409 5.4529L10.0398 9.84721H5.62793C5.35877 9.84721 5.11301 10.0308 5.0311 10.3001C4.94918 10.5694 5.0311 10.8632 5.25344 11.0345L8.82274 13.7519L7.45354 18.1462C7.37162 18.4155 7.45354 18.7093 7.67589 18.8807C7.89824 19.0398 8.1908 19.0398 8.41315 18.8807L11.9824 16.1633L15.5517 18.8807L15.5869 18.8684ZM10.1685 13.6907C10.2505 13.4214 10.1685 13.1277 9.94619 12.9563L7.55886 11.1447H10.5079C10.7771 11.1447 11.0228 10.9611 11.1048 10.6918L12.0176 7.7541L12.9304 10.6918C13.0123 10.9611 13.258 11.1447 13.5272 11.1447H16.4762L14.0889 12.9563C13.8666 13.1277 13.7729 13.4214 13.8666 13.6907L14.7794 16.6284L12.392 14.8168C12.2867 14.7311 12.158 14.6944 12.0293 14.6944C11.9005 14.6944 11.7718 14.7311 11.6665 14.8168L9.27914 16.6284L10.1919 13.6907H10.1685Z" fill="#5E5E5E"/>
</svg>
